/* XPM */
static char *c82c0a96578c48bd8251125e5f9f1999KJ6AQD8dMs4CugxL[] = {
/* columns rows colors chars-per-pixel */
"64 64 25 1 ",
"  c #211C20",
". c gray18",
"X c #5F3831",
"o c #633D36",
"O c #663C35",
"+ c #693E36",
"@ c #6D433B",
"# c #71423A",
"$ c #434343",
"% c gray31",
"& c #505050",
"* c #565757",
"= c #5F6060",
"- c #606060",
"; c #636464",
": c gray40",
"> c #686868",
", c #6D6D6D",
"< c #DEA724",
"1 c #FFC028",
"2 c #C2A154",
"3 c #DEB962",
"4 c #FACD65",
"5 c #FFD673",
"6 c #FAD98E",
/* pixels */
";;;;;;;;;;;;;;;;;;;;;;;;;;;;;;;;;;;;;;;;;;;;;;;;;;;;;;;;;;;;;;;;",
";;;;;;;;;;;;;;;;;;;;;;;;;;;;;;;;;;;;;;;;;;;;;;;;;;;;;;;;;;;;;;;;",
";;;;;>>>>>>>>>>>>>>>>>>>>>>>>>>>>>>>>>>>>>>>>>>>>>>>>>>>>>>;;;;;",
";;;;;>>>>>>>>>>>>>>>>>>>>>>>>>>>>>>>>>>>>>>>>>>>>>>>>>>>>>>;;;;;",
";;;;;>>>>>>>>>>>>>>>>>>>>>>>>>>>>>>>>>>>>>>>>>>>>>>>>>>>>>>;;;;;",
";;>>>>>>>>>>>>>>>>>>>>>>>>>>>>>>>>>>>>>>>>>>>>>>>>>>>>>>>>>>>>;;",
";;>,,,>>>>>>>>>>>>>>>>>>>>>>>>>>>>>>>>>>>>>>>>>>>>>>>>>>>>>>>>;;",
";;>,,,,>>>>>>>>>>>>>>>>>>>>>>>>>>>>>>>>>>>>>>>>>>>>>>>>>>>>>>>;;",
";;>,,,,>>>>>>>>>>>>>>>>>>>>>>>>>>>>>>>>>>>>>>>>>>>>>>>>>>>>>>>;;",
";;>,,,,,>>>>>>>>>>>>>>>>>>>>>>>>>>>>>>>>>>>>>>>>>>>>>>>>>>>>>>;;",
";;>,,,,,>>>>++++++@@@+++++++++@@@@++++++++@@@@++++++>>>>>>>>>>;;",
";;>,,,,,,>>>++++++@@@+++++++++@@@@++++++++@@@@++++++>>>>>>>>>>;;",
";;>,,,,,,>==OOOO####++++++++@@@@@@@@++++++++####OOOO==>>>>>>>>;;",
";;>,,,,,,,==OOOO####++++++++@@@@@@@@++++++++####OOOO==>>>>>>>>;;",
";;>,,,**==########++++++++@@@@@@@@@@@@++++++++########==**>>>>;;",
";;>,,,**==########++++++++@@@@@@@@@@@@++++++++########==**>>>>;;",
";;>,**::########++++++++++@@@@@@@@@@@@++++++++++########::**>>;;",
";;>,**::########++++++++++@@@@@@@@@@@@++++++++++########::**>>;;",
";;>,********************************************************>>;;",
";;>,********************************************************>>;;",
";;>,**&&&&&&&&&&&&&&&&&&&&&&&&&&&&&&&&&&&&&&&&&&&&&&&&&&&&**>>;;",
";;>,**&&&&&&&&&&&&&&&&&&&&&&&&&&&&&&&&&&&&&&&&&&&&&&&&&&&&**>>;;",
";;>,$$                    >>%%....%%>>                    $$>>;;",
";;>,$$                    >>-------->>                    $$>>;;",
";;>,$$                                                    $$>>;;",
";;>,$$                                                    $$>>;;",
";;>,$$                                                    $$>>;;",
";;>,$$                                                    $$>>;;",
";;>,$$    55115511664466446644664466446644664466115511    $$>>;;",
";;>,$$    55115511664466446644664466446644664466115511    $$>>;;",
";;>,$$  22<<33<<33<<33<<33<<33<<33<<33<<33<<33<<55115511  $$>>;;",
";;>,$$  22<<33<<33<<33<<33<<33<<33<<33<<33<<33<<55115511  $$>>;;",
";;>,**OOOOOOOOOOXXXXXXXXXXXXXXXXXXXXXXXXXXXXXXXXOOOOOOOOOO**>>;;",
";;>,**OOOOOOOOOOXXXXXXXXXXXXXXXXXXXXXXXXXXXXXXXXOOOOOOOOOO**>>;;",
";;>,**##########++++++++++@@@@@@@@@@@@++++++++++##########**>>;;",
";;>,**##########++++++++++@@@@@@@@@@@@++++++++++##########**>>;;",
";;>,**##########++++++++++@@@@@@@@@@@@++++++++++##########**>>;;",
";;>,**##########++++++++++@@@@@@@@@@@@++++++++++##########**>>;;",
";;>,**##########++++++++++@@@@@@@@@@@@++++++++++##########**>>;;",
";;>,**##########++++++++++@@@@@@@@@@@@++++++++++##########**>>;;",
";;>,**##########++++++++++@@@@@@@@@@@@++++++++++##########**>>;;",
";;>,**##########++++++++++@@@@@@@@@@@@++++++++++##########**>>;;",
";;>,**##########++++++++++@@@@@@@@@@@@++++++++++##########**>>;;",
";;>,**##########++++++++++@@@@@@@@@@@@++++++++++##########**>>;;",
";;>,**OO########++++++++++@@@@@@@@@@@@++++++++++########OO**>>;;",
";;>,**OO########++++++++++@@@@@@@@@@@@++++++++++########OO**,>;;",
";;>,**OO########++++++++++@@@@@@@@@@@@++++++++++########OO**,>;;",
";;>>**OO########++++++++++@@@@@@@@@@@@++++++++++########OO**,>;;",
";;>>**::OO######++++++++++@@@@@@@@@@@@++++++++++######OO::**,>;;",
";;>>**::OO######++++++++++@@@@@@@@@@@@++++++++++######OO::**,>;;",
";;>>**::::OOOOOOXXXXXXXXXXooooooooooooXXXXXXXXXXOOOOOO::::**,>;;",
";;>>**::::OOOOOOXXXXXXXXXXooooooooooooXXXXXXXXXXOOOOOO::::**,>;;",
";;>>********************************************************,>;;",
";;>>********************************************************,>;;",
";;>>>>>>>>>>>>>>>>>>>>>>>>>>>>>>>>>,,,,,,,,,,,,,,,,,,,,,,,,,,>;;",
";;>>>>>>>>>>>>>>>>>>>>>>>>>>>>>>>>,,,,,,,,,,,,,,,,,,,,,,,,,,,>;;",
";;>>>>>>>>>>>>>>>>>>>>>>>>>>>>>>,,,,,,,,,,,,,,,,,,,,,,,,,,,,,>;;",
";;>>>>>>>>>>>>>>>>>>>>>>>>>>>>>,,,,,,,,,,,,,,,,,,,,,,,,,,,,,,>;;",
";;>>>>>>>>>>>>>>>>>>>>>>>>>>>>,,,,,,,,,,,,,,,,,,,,,,,,,,,,>>>>;;",
";;;;;>>>>>>>>>>>>>>>>>>>>>>>>,,,,,,,,,,,,,,,,,,,,,,,,,,,,,>;;;;;",
";;;;;>>>>>>>>>>>>>>>>>>>>>>>,,,,,,,,,,,,,,,,,,,,,,,,,,,,,,>;;;;;",
";;;;;>>>>>>>>>>>>>>>>>>>>>>>>>>>>>>>>>>>>>>>>>>>>>>>>>>>>>>;;;;;",
";;;;;;;;;;;;;;;;;;;;;;;;;;;;;;;;;;;;;;;;;;;;;;;;;;;;;;;;;;;;;;;;",
";;;;;;;;;;;;;;;;;;;;;;;;;;;;;;;;;;;;;;;;;;;;;;;;;;;;;;;;;;;;;;;;"
};
