/* XPM */
static char *_11ce0693fbf462ad8d52645b91b6c16R3TdDzkasExAubE3[] = {
/* columns rows colors chars-per-pixel */
"64 64 14 1 ",
"  c #636464",
". c #686868",
"X c #6D6D6D",
"o c #DEAA2A",
"O c #DEAE3C",
"+ c #EDB429",
"@ c #FFC028",
"# c #FFC63E",
"$ c #EDBE4B",
"% c #FFCA4C",
"& c #FFCF5D",
"* c #FFD268",
"= c #FFD672",
"- c #FFD675",
/* pixels */
"                                                                ",
"                                                                ",
"     ......................................................     ",
"     ......................................................     ",
"     ......................................................     ",
"  ............................................................  ",
"  .XXX........................................................  ",
"  .XXXX.......................................................  ",
"  .XXXX.......................................................  ",
"  .XXXXX......................................................  ",
"  .XXXXX......................................................  ",
"  .XXXXXX.....................................................  ",
"  .XXXXXX.....................................................  ",
"  .XXXXXXX....................................................  ",
"  .XXXXXXX....................................................  ",
"  .XXXXXXXX...................................................  ",
"  .XXXXXXXXXXXX...............................................  ",
"  .XXXXXXXXXXXXXXXXXXX........................................  ",
"  .XXXXXXXXXXXXXXXXXXXXXXXXX..................................  ",
"  .XXXXXXXXXXXXXXXXXXXXXXXXXXXXXX.............................  ",
"  .XXXXXXXXXXXXXXXXXXXXXXXXXXXXXX.............................  ",
"  .XXXXXXXXXXXXXXXXXXXXXXXXXXXXX..............................  ",
"  .XXXXXXXXXXXXXXXXXXXXXXXXXXXXX..............................  ",
"  .XXXXXXXXXXXXXXXXXXXXXXXXXXXX...............................  ",
"  .XXXXXXXXXXXXXXXXXXXXXXXXX@@@@@.............................  ",
"  .XXXXXXXXXXXXXXXXXXXXXXXX@=====@............................  ",
"  .XXXXXXXXXXXXXXXXXXXXXXXX#*@*@@O............................  ",
"  .XXXXXXXXXXXXXXXXXXXXXXXX@-#-##o............................  ",
"  .XXXXXXXXXXXXXXXXXXXXXXXX#*@*@@O............................  ",
"  .XXXXXXXXXXXXXXXXXXXXXXXX@-#-##o..@@@@@.....................  ",
"  .XXXXXXXXXXXXXXXXXXXXXXXX#*@%@@O.@=====@....................  ",
"  .XXXXXXXXXXXXXXXXXXXXX...@-#&##o.O%@%@@O....................  ",
"  .XXXXXXXXXXXXXXXX@@@@@...#*@%@@O.o&#&##o....................  ",
"  .XXXXXXXXXXXXXX.@=====@..@-#&##o.O%@%@@O....................  ",
"  .XXXXXXXXXXXXXX.#*@*@@O..#%@%@@O.o&#&##o....................  ",
"  .XXXXXXXXXXXXXX.@-#-##o...#&#&#@oO%@%@@O....................  ",
"  .XXXXXXXXXXXXXX.#*@*@@O...#*@*@@Oo&#&##o....................  ",
"  .XXXXXXXXXXXXXX.@-#&##o...@-#-##oO%@%@@O....................  ",
"  .XXXXXXXXXXXXX..#*@%@@O...#*@*@@Oo&#&##o....................  ",
"  .XXXXXXXXXXXXX..@-#&##o...@-#&##oO%@%@@O@@..................  ",
"  .XXXXXXXXXXXXX..#%@@@@O...#*@%@@Oo&#&##o==@.................  ",
"  .XXXXXXXXXXX@@@+@&#&##o...@-#&##oO%@@@@O@@..................  ",
"  .XXXXXXXXXX@===$#%@%@@O...#%@%@@Oo&####o.....XXX............  ",
"  .XXXXXXXX...@@@+@&#&##o...@&#&##o.%@@@@......XXXXXXX........  ",
"  .XXXXXX..........%@@@@....#%@%@@O........@@@@@XXXXXXXXXX....  ",
"  .XXX.......................&#&##........@=====@XXXXXXXXXXXX.  ",
"  .X.......................................@@@@@XXXXXXXXXXXXX.  ",
"  ........................................XXXXXXXXXXXXXXXXXXX.  ",
"  .......................................XXXXXXXXXXXXXXXXXXXX.  ",
"  ......................................XXXXXXXXXXXXXXXXXXXXX.  ",
"  .....................................XXXXXXXXXXXXXXXXXXXXXX.  ",
"  ....................................XXXXXXXXXXXXXXXXXXXXXXX.  ",
"  ...................................XXXXXXXXXXXXXXXXXXXXXXXX.  ",
"  ..................................XXXXXXXXXXXXXXXXXXXXXXXXX.  ",
"  .................................XXXXXXXXXXXXXXXXXXXXXXXXXX.  ",
"  ................................XXXXXXXXXXXXXXXXXXXXXXXXXXX.  ",
"  ..............................XXXXXXXXXXXXXXXXXXXXXXXXXXXXX.  ",
"  .............................XXXXXXXXXXXXXXXXXXXXXXXXXXXXXX.  ",
"  ............................XXXXXXXXXXXXXXXXXXXXXXXXXXXX....  ",
"     ........................XXXXXXXXXXXXXXXXXXXXXXXXXXXXX.     ",
"     .......................XXXXXXXXXXXXXXXXXXXXXXXXXXXXXX.     ",
"     ......................................................     ",
"                                                                ",
"                                                                "
};
