/* XPM */
static char *_a45111b1b8146a282f20f7638ed2511XHqipMuW1iwA6SDM[] = {
/* columns rows colors chars-per-pixel */
"64 64 23 1 ",
"  c #2D2B3F",
". c #434343",
"X c #43434F",
"o c #44434F",
"O c #44444F",
"+ c #454450",
"@ c #474751",
"# c #484752",
"$ c #484852",
"% c #4B4B54",
"& c #4C4B54",
"* c #4D4C55",
"= c #4F4F56",
"- c #504F57",
"; c #505057",
": c #58575F",
"> c #636464",
", c #686868",
"< c #6D6D6D",
"1 c #FF1E1E",
"2 c #D1525E",
"3 c #D95763",
"4 c #D96380",
/* pixels */
">>>>>>>>>>>>>>>>>>>>>>>>>>>>>>>>>>>>>>>>>>>>>>>>>>>>>>>>>>>>>>>>",
">>>>>>>>>>>>>>>>>>>>>>>>>>>>>>>>>>>>>>>>>>>>>>>>>>>>>>>>>>>>>>>>",
">>>>>,,,,,,,,,,,,,,,,,,,,,,,,,,,,,,,,,,,,,,,,,,,,,,,,,,,,,,>>>>>",
">>>>>,,,,,,,,,,,,,,,,,,,,,,,,,,,,,,,,,,,,,,,,,,,,,,,,,,,,,,>>>>>",
">>>>>,,,,,,,,,,,,,,,,,,,,,,,,,,,,,,,,,,,,,,,,,,,,,,,,,,,,,,>>>>>",
">>,,,,,,,,,,,,,,,,,,,,,,,,,,,,,,,,,,,,,,,,,,,,,,,,,,,,,,,,,,,,>>",
">>,<<<,,,,,,,,,,,,,,,,,,,,,,,,,,,,,,,,,,,,,,,,,,,,,,,,,,,,,,,,>>",
">>,<<<<,,,,,,,,,,,,,,,,,,,,,,,,,,,,,,,,,,,,,,,,,,,,,,,,,,,,,,,>>",
">>,<<<<,,,,,,,,,,,,,,,,,,,,,,,,,,,,,,,,,,,,,,,,,,,,,,,,,,,,,,,>>",
">>,<<<<<,,,,,,,,,,,,,,,,,,,,,,,,,,,,,,,,,,,,,,,,,,,,,,,,,,,,,,>>",
">>,<<<<<,,,,,,,,,,,,,,,,,,,,,,,,,,,,,,,,,,,,,,,,,,,,,,,,,,,,,,>>",
">>,<<<<<<,,,,,,,,,,,,,,,,,,,,,,,,,,,,,,,,,,,,,,,,,,,,,,,,,,,,,>>",
">>,<<<<<<,,,,,,,,,,,,,,,,,,,,,,,,,,,,,,,,,,,,,,,,,,,,,,,,,,,,,>>",
">>,<<<<<<<,,,,,,,,,,,,,,,,,,,,,,,,,,,,,,,,,,,,,,,,,,,,,,,,,,,,>>",
">>,<<<<<<<,,,,,,,,,,,,,,,,,,,,,,,,,,,,,,,,,,,,,,,,,,,,,,,,,,,,>>",
">>,<<<<<<<<,,,,,,,,,,,,,,,,,,,,,,,,,,,,,,,,,,,,,,,,,,,,,,,,,,,>>",
">>,<<<<<<<<<<<<,,,,,,,,,,,,,,,,,,,,,,,,,,,,,,,,,,,,,,,,,,,,,,,>>",
">>,<<<<<<<<<<<<<<<<<<<,,,,,,,,,,,,,,,,,,,,,,,,,,,,,,,,,,,,,,,,>>",
">>,<<<<<<<<<XXXXooOOO++++++++#$$$$,,,,,,,,,,,,,,,,,,,,,,,,,,,,>>",
">>,<<<<<<<<<XXXXooOO+++++++++#$$$$,,,,,,,,,,,,,,,,,,,,,,,,,,,,>>",
">>,<<<<<<<XXXXXooOO+++++++++#$$$$$$$$$%%,,,,,,,,,,,,,,,,,,,,,,>>",
">>,<<<<<<<XXXXoooOO++++++++##$$$$$$$$$%%,,,,,,,,,,,,,,,,,,,,,,>>",
">>,<<<<<XXXXXXooOO+++++++++#$$$$$$$$$%%%****,,,,,,,,,,,,,,,,,,>>",
">>,<<<<<XXXXXooOOO++++++++#$$$$$$$$$%%%&****,,,,,,,,,,,,,,,,,,>>",
">>,<<<<<XXXXXooOO+++++##+$#$$$$$$$$$&&&*******,,,,,,,,&&,,,,,,>>",
">>,<<<<<XXXXooOO++++++##$$$$$$$$$$$%**&*******,,,,,,,,&&,,,,,,>>",
">>,<<<<<XXXoooOO+++++++$$$$$$$$$$$$%::::::::::,,,,,,$$22&&,,,,>>",
">>,<<<<<XXXooOO+++++++++$$$$$$$$$$%%::::::::::,,,,,,$$22&&,,,,>>",
">>,<<<<<XXooOOO++++++++#$$$$$$$$$%%%::33333333::,,,,$$22$$,,,,>>",
">>,<<<<<XoooOO++++++++##$$$$$$$$$%%&::33333333::,,,,$$22$$,,,,>>",
">>,<<<<<XooOO+++++++++#$$$$$$$$$%%%&::3333333333::;;2222$$,,,,>>",
">>,<<<<<ooOOO++++++++#$$$$$$$$$&%%&*::3333333333::;;2222$$,,,,>>",
">>,<<<<<ooOO++++++++$$$$$$$$$$$%%%**::3333333333::;;22$$,,,,,,>>",
">>,<<<<<oOO+++++++++$$$$$$$$$$%%%&**::3333333333::;;22$$,,,,,,>>",
">>,<<<44oOO++++++++#$$$$$$$$$$%%&***::::33333333::;;;;,,,,,,,,>>",
">>,<<<44OO+++++++++#$$$$$$$$$%%%&***::::33333333::;;;;,,,,,,,,>>",
">>,<4433OO++++++++#$$$$$$$$$&*%&******::::::::::;;;;;;;;;;;;44>>",
">>,<4433O++++++++##$$$$$$$$&**&*******::::::::::;;;;;;;;;;;;44>>",
">>,<33<<++++++++##$$$$$$$$$&*%&************;;;  11  ;;;;;;;;,,>>",
">>,<33<<++++++++##$$$$$$$$&**&************-;;;  11  ;;;;;;;;,,>>",
">>,<44<<++++++++#$$$$$$$$$%%%*********-;**;;;;;;;;;;;;;;;;,,,,>>",
">>,<44<<++++++$$$$$$$$$$$%%%&*********;;*;;;;;;;;;;;;;;;;;,,,,>>",
">>,<33<<<<++#$$$$$$$$$$$$%%&************-;;;;;;;;;;;;;;;,,,,,,>>",
">>,<33<<<<++$$$$$$$$$$$$%%%&************;;;;;;;;;;;;;;;;,,,,,,>>",
">>,<44<<<,,,$#$$$$$$$$$%%%&************-;;;;;;;;;;;;<<<<<<,,,,>>",
">>,<44,,,,,,+#$$$$$$$$$%%&************-;;;;;;;;;;;;;<<<<<<<<<,>>",
">>,<33,,,,,,,,,,$$$$,,....,,,,,,,,,,**;;,,....<<<<<<<<<<<<<<<,>>",
">>,,33,,,,,,,,,,$$$$,,....,,,,,,,,,,*-;;,,....<<<<<<<<<<<<<<<,>>",
">>3344,,,,,,,,,,$$,,,,..,,,,,,,,,,,,*;,,,<..<<<<<<<<<<<<<<<<<,>>",
">>3344,,,,,,,,,,$$,,,,..,,,,,,,,,,,,;;,,<<..<<<<<<<<<<<<<<<<<,>>",
">>,,,,,,,,,,,,,,,,,,,,,,,,,,,,,,,,,,,,,<<<<<<<<<<<<<<<<<<<<<<,>>",
">>,,,,,,,,,,,,,,,,,,,,,,,,,,,,,,,,,,,,<<<<<<<<<<<<<<<<<<<<<<<,>>",
">>,,,,,,,,,,,,,,,,,,,,,,,,,,,,,,,,,,,<<<<<<<<<<<<<<<<<<<<<<<<,>>",
">>,,,,,,,,,,,,,,,,,,,,,,,,,,,,,,,,,,<<<<<<<<<<<<<<<<<<<<<<<<<,>>",
">>,,,,,,,,,,,,,,,,,,,,,,,,,,,,,,,,,<<<<<<<<<<<<<<<<<<<<<<<<<<,>>",
">>,,,,,,,,,,,,,,,,,,,,,,,,,,,,,,,,<<<<<<<<<<<<<<<<<<<<<<<<<<<,>>",
">>,,,,,,,,,,,,,,,,,,,,,,,,,,,,,,<<<<<<<<<<<<<<<<<<<<<<<<<<<<<,>>",
">>,,,,,,,,,,,,,,,,,,,,,,,,,,,,,<<<<<<<<<<<<<<<<<<<<<<<<<<<<<<,>>",
">>,,,,,,,,,,,,,,,,,,,,,,,,,,,,<<<<<<<<<<<<<<<<<<<<<<<<<<<<,,,,>>",
">>>>>,,,,,,,,,,,,,,,,,,,,,,,,<<<<<<<<<<<<<<<<<<<<<<<<<<<<<,>>>>>",
">>>>>,,,,,,,,,,,,,,,,,,,,,,,<<<<<<<<<<<<<<<<<<<<<<<<<<<<<<,>>>>>",
">>>>>,,,,,,,,,,,,,,,,,,,,,,,,,,,,,,,,,,,,,,,,,,,,,,,,,,,,,,>>>>>",
">>>>>>>>>>>>>>>>>>>>>>>>>>>>>>>>>>>>>>>>>>>>>>>>>>>>>>>>>>>>>>>>",
">>>>>>>>>>>>>>>>>>>>>>>>>>>>>>>>>>>>>>>>>>>>>>>>>>>>>>>>>>>>>>>>"
};
