/* XPM */
static char *_9ebd83898bb415af034e8243cd36aaei5zAUp6ADSVV9abP[] = {
/* columns rows colors chars-per-pixel */
"64 64 67 1 ",
"  c #1D2119",
". c gray23",
"X c #3D403B",
"o c #3F443B",
"O c #41483B",
"+ c #4B5F39",
"@ c #4B593E",
"# c #4B5C3C",
"$ c #6E473D",
"% c #6F483D",
"& c #70493E",
"* c #754B3F",
"= c #764C3F",
"- c #4B692F",
"; c #4B6731",
": c #4B6137",
"> c #4B6434",
", c #4B6830",
"< c #4B6038",
"1 c #50643C",
"2 c #4B4F47",
"3 c #4B4B4B",
"4 c #4B4F48",
"5 c #4B5343",
"6 c #4B5443",
"7 c #4B5245",
"8 c gray32",
"9 c gray34",
"0 c gray35",
"q c gray36",
"w c #774C40",
"e c #764F44",
"r c #774F44",
"t c #794D40",
"y c #7C4F41",
"u c #7D5042",
"i c #785044",
"p c #7C5246",
"a c #7F5447",
"s c #526440",
"d c #546444",
"f c #556943",
"g c #58644C",
"h c #586948",
"j c #5C6454",
"k c #5F6C53",
"l c #5E6458",
"z c #60645C",
"x c #656D5D",
"c c #606060",
"v c #646464",
"b c #686F62",
"n c #717171",
"m c #805243",
"M c #835344",
"N c #805447",
"B c #845444",
"V c #805548",
"C c #845749",
"Z c #86584A",
"A c #8A5A4B",
"S c #8B5B4C",
"D c #8C5B4C",
"F c #8E5D4D",
"G c #925F4E",
"H c #8A7D77",
"J c #9B8A82",
/* pixels */
"                                                                ",
"                                                                ",
"                                                                ",
"                                                                ",
"                                                                ",
"8880000000000000000000000000000000000000000000000000000000000888",
"8880000000000000000000000000000000000000000000000000000000000888",
"8880000000000000000000000000000000000000000000000000000000000888",
"88-OoXXX.......--OoooXXX.......................--.........Xoo;88",
"88,O...........--O.............................::...........o;88",
"88;o...........::o.............................0+...........X;88",
"88;o...........@@X.............................0@X...........;88",
"88;X..........X77X..........;;;;;;;;..........X06o...........;88",
"88;...........o33...........dddddddd..........o02O...........>88",
"88;......XXooOO33.;;;;;;;;;;jjjjjjjj;;;;;;;;;;O03OOooXX......>88",
"88;;;0000000000000hhhhhhhhhhvvvvvvvvhhhhhhhhhh00300000::::::::88",
"88>ooXX...;;;;;;;;xxxxxxxxxxeeeeeeeexxxxxxxxxx;;;;;;;;.......:88",
"88>o......ggggggggnnnnnnnnnneeeeeeeennnnnnnnnndddddddd.......:88",
"88:o......vvvvvvvveeee$$$$$$eeeeieee$$$$$$eeeejjjjjjjj.......:88",
"88:X......vvvvvvvveeee$$$$$$iiiiiiii$$$$$$eeeevvvvvvvv......X:88",
"88:.....;;;;$$$$iiiiii$$$$$$iiiiiiii%%%%%%eeeeee$$$$;;;;....X:88",
"88:.....hhhh%%%$iiiiii$$$$$$iiiiiiii&&&&&&eeeeee$$$$hhhh....o<88",
"88:.....xxxx%&&%iiiiii%%%%%%iiiiiiii&&&&&&iiiiii$$$$xxxxXoOOo+88",
"88::::::nnnn&&&&iiiipp&&%%&&pppppppp&&&&&&iiiiii%%%%nnnn++++++88",
"88<.....nnnn&&&&pppppp&&&&&&pppppppp&&&&&*iiiiii%%%%nnnn.....+88",
"88+.....nnnn&&&&aaaaaa&&&&&&aNNaaaaa******ppiiii&&&&nnnn.....+88",
"88+...;;;;;;&&&&aaaaaa&&&&&&aaNaNNNN******pppppp&&&&;;;;;;..X+88",
"88+...ssssss****VVVVVV&&&&&&VVVVVVVVwwwwwwpppppp&&&&111111..X+88",
"88+...gggggg====VVVVVV&&&&**VVVVVVVVwwwwwwpppppp&&&&dddddd..o+88",
"88+...llllllwwwtVVVVVV******VVVVVVVVttttttaaaaaa****gggggg..o#88",
"88+...vvvvvvttttCCCCCC******CVVVVVVVttttttaaaaaa****jjjjjjooo@88",
"88+000vvvvvvttttZZZZZZ======CCCCCCCCttttttVVVVVV====zzzzzz@@@@88",
"88+...vvvvvvttttZZZZZZwwwwwwZZZZZZZZttttttVVVVVVwwwwvvvvvv...@88",
"88@...vvvvvvttttAAAAAAwwwwwwZZZZZZZZyyyyyyVVVVVVwwwwvvvvvv...@88",
"88@...vvvvvvyyyyAAAAAAHHHHttZZZZZZZZuuHHHHVVCCCCttttvvvvvv...@88",
"88@...vvvvvvuuuuSSSSSSHHHHttAAAAAAAAuuHHHHCCCCCCttttvvvvvv...@88",
"88@.....;;;;uuuuFFFFFFJJHHttAAAAAAAAuuHHJJZZZZZZtttt;;;;.....@88",
"88@.....hhhhuuuuFFFFFFJJHHttSSSAAAAAmmHHJJZZZZZZttttffff.....688",
"88@.....xxxxmmmmFFFFFFJJttttDDDDDDDDmmmmJJZZZZZZyyyykkkk.....688",
"88@@@@@@nnnnmmmmGGGGGGJJyyyyFFFFFFFFMMMMJJZZZZZZyyyybbbb00666688",
"886.....nnnnMmmmGGGGGGJJuuuuFFFFFFFFBBBBJJAAAAAABBBBnnnn.....688",
"886.....nnnnBMMMGGGGGGJJuuuuFFFFFFFFBBBBJJAAAAAAMMMMnnnn.....688",
"886...;;;;;;BBBBGGGGGGJJHHuuGGGGGGGGBBHHJJAAAAAAmmmm;;;;;;...688",
"886...ssssssBBBBGGGGGGJJHHuuGGGGGGGGBBHHJJSSSSSSmmmm111111...688",
"886...ggggggBBBBGGGGGGBBJJHHGGGGGGGGHHJJmmFFFFFFmmmmdddddd...688",
"886...llllllBBBBGGGGGGBBJJHHGGGGGGGGHHJJumGGGGGGuuuugggggg...788",
"886...vvvvvvBBBBFFFFFFBBBBJJJJJJJJJJJJuuuuFFGGGGuuuujjjjjj...788",
"886660vvvvvvBBBBFFFFFFBBBBJJJJJJJJJJJJuuuuFFFFFFuuuuzzzzzz777788",
"885...vvvvvvBBBBDDDDDDBBBBBBVVVVVVVVyyyyuuFFFFFFyyyyvvvvvv...788",
"887...vvvvvvMMMMAAAAAABBBBBBVVNNNNNNttttyyDDDDDDttttvvvvvv...788",
"887...vvvvvvmmmmAAAAAAmmmmmMaaaaaaaattttttAAAAAAttttvvvvvv...788",
"887...vvvvvvmmmmZZZZZZmmmmmmaaaaaaaattttttAAAAAAttttvvvvvv...788",
"887.....;;;;uuuuZZZZZZuuuuuuaappppppttttttZZZZZZtttt;;;;.....288",
"887.....hhhhuuuuCCCCCCuuuuuuppppppppwwwwwtZZZZZZwwwwhhhh.....488",
"887.....xxxxyyyyCCVVVVtyyyyypppppppp==wwwwCCCCCCwwwwxxxx.....488",
"88222222nnnnttttVVVVVVttttttpppppppp****==VCCVVV====nnnn44444488",
"99q99999nnnnttttVVVVVVttttttiiipiiip******VVVVVV****nnnn99999q99",
"999q9999nnnnwwwwNNaaaawtwwwwiiiiiiii&&&&*&VVVVVV&&&&nnnn9999q999",
"999q99;;;;;;====pppppp******iiiiiiii&&&&&&aaaaaa&&&&;;;;;;99q999",
"999q99ssssss****pppppp&&&&&*iiiiiiii&&&&&&pppppp&&&&ssssss99q999",
"999q99gggggg&&&&iiiiii&&&&&&iiiiiiii&&&&&&pppppp&&&&gggggg99q999",
"999c99llllll&&&&iiiiii&&&&&&iiiiiiii%%%%%%iiiiii&&&&llllll99c999",
"999c88vvvvvv&&&&iiiiii%%%%%%eeeeeeee$$%%%%iiiiii%&&&vvvvvv88c999",
"999c88vvvvvv%%%%eeeeee$$$$$$eeeeeeee$$$$$$iiiiii$$$$vvvvvv88c999"
};
