/* XPM */
static char *c1f72456b7f54ab5cefb4e78d7eb66b9VsUqCyKmkJ1BfJSh[] = {
/* columns rows colors chars-per-pixel */
"64 64 32 1 ",
"  c black",
". c #22362F",
"X c #603A26",
"o c #3B544B",
"O c #35715B",
"+ c #454B4B",
"@ c #4B645B",
"# c #5A6D66",
"$ c #427D68",
"% c #636464",
"& c #686868",
"* c #6D6D6D",
"= c #657D75",
"- c #AC3232",
"; c #D13535",
": c #DF7126",
"> c #45826B",
", c #4B9278",
"< c #4D9279",
"1 c #A5AC32",
"2 c #FBF236",
"3 c #6A8E81",
"4 c #7A8A85",
"5 c #709B8B",
"6 c #57B894",
"7 c #66A78E",
"8 c #78B09B",
"9 c #83A397",
"0 c #83B09F",
"q c #8DB0A3",
"w c #BDE6D7",
"e c #CFFBEB",
/* pixels */
"%%%%%%%%%%%%%%%%%%%%%%%%%%%%%%%%%%;;;;;;;;%%%%%%%%%%%%%%%%%%%%%%",
"%%%%%%%%%%%%%%%%%%%%%%%%%%%%%%%%%%;;;;;;;;%%%%%%%%%%%%%%%%%%%%%%",
"%%%%%&&&&&&&&&&&&&&&&&&&&&&&&&&&;;;;::;;;;;;;;&&&&;;&&&&&&;;%%%%",
"%%%%%&&&&&&&&&&&&&&&&&&&&&&&&&&&;;;;::;;;;;;;;&&&&;;&&&&&&;;%%%%",
"%%%%%&wwwwww&&&&&&&&&&&&&&&&&&&&;;::22;;&&;;;;;;;;&&&&;;&&&%%%%%",
"%%&&&&wwwwww&&&&&&&&&&&&&&&&&&&&;;::22;;&&;;;;;;;;&&&&;;&&&&&&%%",
"%%&*wwwwqq&&&&&&&&&&&&&&&&&&&&&&&&2222&&&&&&&&&&&&&&&&&&&&&&&&%%",
"%%&*wwwwqq&&&&&&&&&&&&&&&&&&&&&&&&2222&&&&&&&&&&&&&&&&&&&&&&&&%%",
"%%&*wwqqqq&&&&&&&&&&&&&&&&&&&&&&&&8888&&&&&&&&&&&&&&&&&&&&&&&&%%",
"%%&*wwqqqq&&&&&&&&&&&&&&&&&&&&&&&&8888&&&&&&&&&&&&&&&&&&&&&&&&%%",
"%%&*eeqqqq&&&&&&&&&&&&5533553355335533553355&&&&&&&&&&&&&&&&&&%%",
"%%&*eeqqqq&&&&&&&&&&&&5533553355335533553355&&&&&&&&&&&&&&&&&&%%",
"%%&*eeqqqq&&&&&&&&&&553355335533553355335533&&&&&&&&&&&&&&&&&&%%",
"%%&*eeqqqq&&&&&&&&&&553355335533553355335533&&&&&&&&&&&&&&&&&&%%",
"%%&*eeqqqq&&&&&&&&&&335533553355335533553355&&&&&&&&&&&&&&&&&&%%",
"%%&*eeqqqq*&&&&&&&&&335533553355335533553355&&&&&&&&&&&&&&&&&&%%",
"%%&*eeqqqq*****&&&&&555555555555555555555555&&&&&&&&&&&&&&&&&&%%",
"%%&*eeqqqq**********555555555555555555555555&&&&&&&&&&&&&&&&&&%%",
"%%&*ee99qq**********550055005500550055005555&&&&&&&&&&&&&&&&&&%%",
"%%&*ee99qq**********550055005500550055005555&&&&&&&&&&&&&&&&&&%%",
"%%&*ee99qq**********55  55  55  55  55  5555&&&&&&&&&&&&&&&&&&%%",
"%%&*ee99qq**********55  55  55  55  55  5555&&&&&&&&&&&&&&&&&&%%",
"%%&*ww99qq**********55  552255  552255  5555&&&&&&&&&&&&&&&&&&%%",
"%%&*ww99qq**********55  552255  552255  5555&&&&&&&&&&&&&&&&&&%%",
"%%&*ee9999**********55  55  55  55  55  oooooooo&&&&&&&&&&&&&&%%",
"%%&*ee9999**********55  55  55  55  55  oooooooo&&&&&&&&&&&&&&%%",
"%%&*ee9999********oo553355335533553355oo@@@@@@@@oooooo&&&&&&&&%%",
"%%&*ee9999********oo553355335533553355oo@@@@@@@@oooooo&&&&&&&&%%",
"%%&*ww9999****oooo@@555555555555555555oo@@@@@@@@@@@@@@oo&&&&&&%%",
"%%&*ww9999****oooo@@555555555555555555oo@@@@@@@@@@@@@@oo&&&&&&%%",
"%%&*ww9999**@@@@@@@@5555$$$$$$OOOOOO5555oo@@@@@@@@@@@@@@&&&&&&%%",
"%%&*ww9999**@@@@@@@@5555$$$$$$OOOOOO5555oo@@@@@@@@@@@@@@&&&&&&%%",
"44444444444444**OO@@oo,,$$$$$$OOOOOO>>>>oo@@oo..OOOOOOOO&&&&&&%%",
"44444444444444**OO@@oo,,$$$$$$OOOOOO>>>>oo@@oo..OOOOOOOO&&&&&&%%",
"==============>>OOoo,,,,,,$$OOOOOO>>>>>>>>oo....OOOOOOOOOO&&&&%%",
"==============>>OOoo,,,,,,$$OOOOOO>>>>>>>>oo....OOOOOOOOOO&&&&%%",
"%%&*++..++****>>OO..,,,,,,,,,,>>>>>>>>>>>>....OOOOOOOO....&&&&%%",
"%%&*++..++****>>OO..,,,,,,,,,,>>>>>>>>>>>>....OOOOOOOO....&&&&%%",
"%%&*......>>>>..>>OO,,,,,,,,,,>>>>>>>>>>>>....OOOOOO..<<<<<<&&%%",
"%%&*......>>>>..>>OO,,,,,,,,,,>>>>>>>>>>>>....OOOOOO..<<<<<<&&%%",
"%%&*....++>>>>..>>>>..,,,,,,,,>>>>>>>>>>....&&&&&&&&<<<<<<<<&&%%",
"%%&*....++>>>>..>>>>..,,,,,,,,>>>>>>>>>>....&&&&&&&&<<<<<<<<&&%%",
"%%&*....++>>>>>>..&&,,..,,,,,,,,>>>>>>........,,,,&&&&666666&&%%",
"%%&*....++>>>>>>..&&,,..,,,,,,,,>>>>>>........,,,,****666666&&%%",
"%%&*##==##>>>>>>&&,,OO....................OOOOOOOO,,**66666666%%",
"%%&*##==##>>>>>>&&,,OO....................OOOOOOOO,,**66666666%%",
"%%&*==##==&&&&&&,,OOOOOOXXXX,,OOXXXXXXXXOOOOOOOOOOOO,,66666666%%",
"%%&&==##==&&&&&&,,OOOOOOXXXX,,OOXXXXXXXXOOOOOOOOOOOO,,66666666%%",
"%%&&&&==&&&&&&,,OOOO......11OO,,--11......OOOOOOOOOO,,666666*&%%",
"%%&&&&==&&&&&&,,OOOO......11OO,,--11......OOOOOOOOOO,,666666*&%%",
"%%&&&&&&&&&&&&,,OO........11------11..........OOOOOO,,*******&%%",
"%%&&&&&&&&&&&&,,OO........11------11..........OOOOOO,,*******&%%",
"%%&&&&&&&&&&&&&&&&........11------11............*************&%%",
"%%&&&&&&&&&&&&&&&&........11------11............*************&%%",
"%%&&&&&&&&&&&&&&&&........1111111111............*************&%%",
"%%&&&&&&&&&&&&&&&&........1111111111............*************&%%",
"%%&&&&&&&&&&&&&&7777......11&&11**11..........77*************&%%",
"%%&&&&&&&&&&&&&&7777......11&&11**11..........77*************&%%",
"%%&&&&&&&&&&&&&&&&77>>>>&&&&&&**********>>>>77************&&&&%%",
"%%%%%&&&&&&&&&&&&&77>>>>&&&&&***********>>>>77************&%%%%%",
"%%%%%&&&&&&&&&&&&&>>>>&&&&&&**************>>>>************&%%%%%",
"%%%%%&&&&&&&&&&&&&>>>>&&&&&&&&&&&&&&&&&&&&>>>>&&&&&&&&&&&&&%%%%%",
"%%%%%%%%%%%%%%%%>>>>>>%%%%%%%%%%%%%%%%%%%%>>>>>>%%%%%%%%%%%%%%%%",
"%%%%%%%%%%%%%%%%>>>>>>%%%%%%%%%%%%%%%%%%%%>>>>>>%%%%%%%%%%%%%%%%"
};
