/* XPM */
static char *_d50af4f15f1462786ee1e3379b3a356Gvqw3QZGXOYISvYK[] = {
/* columns rows colors chars-per-pixel */
"64 64 25 1 ",
"  c #1D2119",
". c gray23",
"X c #3D403B",
"o c #3F443B",
"O c #41483B",
"+ c #4B5F39",
"@ c #4B593E",
"# c #4B5C3C",
"$ c #4B692F",
"% c #4B6731",
"& c #4B6137",
"* c #4B6434",
"= c #4B6830",
"- c #4B6038",
"; c #4B4F47",
": c #4B4B4B",
"> c #4B4F48",
", c #4B5343",
"< c #4B5443",
"1 c #4B5245",
"2 c gray32",
"3 c gray34",
"4 c gray35",
"5 c gray36",
"6 c #606060",
/* pixels */
"                                                                ",
"                                                                ",
"                                                                ",
"                                                                ",
"                                                                ",
"2224444444444444444444444444444444444444444444444444444444444222",
"2224444444444444444444444444444444444444444444444444444444444222",
"2224444444444444444444444444444444444444444444444444444444444222",
"22$OoXXX.......$$OoooXXX.......................$$.........Xoo%22",
"22=O...........$$O.............................&&...........o%22",
"22%o...........&&o.............................4+...........X%22",
"22%o...........@@X.............................4@X...........%22",
"22%X..........X11X............................X4<o...........%22",
"22%...........o::.............................o4;O...........*22",
"22%......XXooOO::.....................XXXXoooOO4:OOooXX......*22",
"22%%%444444444444444444444444::::::444::::444444:44444&&&&&&&&22",
"22*ooXX........................:4............................&22",
"22*o...........................:4............................&22",
"22&o..........................X:4............................&22",
"22&X..........................X:4...........................X&22",
"22&...........................o:4...........................X&22",
"22&...........................o:4...........................o-22",
"22&..................XXXooOOOOO:4......................XXoOOo+22",
"22&&&&&&&&&&44444444444444:::::::::::::::4444444444444++++++++22",
"22-............::..........................XXoo::ooX.........+22",
"22+............::.............................o::o...........+22",
"22+............::X............................o::X..........X+22",
"22+............::X............................X::...........X+22",
"22+...........X::X.............................:4...........o+22",
"22+...........O::o............................X:4...........o#22",
"22+....XXXXXXoO::OoXXXXX.....................XX:4......XXoooo@22",
"22+444444444444444444444:::::::::::::::::44444444444444444@@@@22",
"22+............................::............................@22",
"22@............................4:............................@22",
"22@............................4:............................@22",
"22@............................4:X...........................@22",
"22@............................4:o...........................@22",
"22@............................4:O...........................<22",
"22@............................4:OOOOooXXX...................<22",
"22@@@@@@@@4444444444444444444444:::::444444444444444444444<<<<22",
"22<............::..............................:4............<22",
"22<............::..............................:4............<22",
"22<............::..............................:4............<22",
"22<............::..............................:4............<22",
"22<............::..............................:4............<22",
"22<............::..............................:4............122",
"22<............::..............................:4............122",
"22<<<44444444444:::::::::::4444444444444444444444444444411111122",
"22,......................XXooOO41............................122",
"221...........................O41............................122",
"221...........................o41............................122",
"221...........................X41............................122",
"221...........................X41............................;22",
"221............................41............................>22",
"221............................4;............................>22",
"22;;;;;;;;;;;;;;;;;;;>>>>>>>>>>>>>>>>>>>>>>>>>>>>>>>>>>>>>>>>>22",
"3353333333333333333333333333333333333333333333333333333333333533",
"3335333333333333333333333333333333333333333333333333333333335333",
"3335333333333333333333333333333333333333333333333333333333335333",
"3335333333333333333333333333333333333333333333333333333333335333",
"3335333333333333333333333333333333333333333333333333333333335333",
"3336333333333333333333333333333333333333333333333333333333336333",
"3336222222222222222222222222222222222222222222222222222222226333",
"3336222222222222222222222222222222222222222222222222222222226333"
};
